<svg id="visual" viewBox="0 0 960 200" width="960" height="200" xmlns="http://www.w3.org/2000/svg" xmlns:xlink="http://www.w3.org/1999/xlink" version="1.1"><rect x="0" y="0" width="960" height="200" fill="#211337"></rect><path d="M0 94L12.3 96.5C24.7 99 49.3 104 74 103.8C98.7 103.7 123.3 98.3 148 95.5C172.7 92.7 197.3 92.3 221.8 91.2C246.3 90 270.7 88 295.2 83.8C319.7 79.7 344.3 73.3 369 76.5C393.7 79.7 418.3 92.3 443 99.5C467.7 106.7 492.3 108.3 517 102.8C541.7 97.3 566.3 84.7 591 77.7C615.7 70.7 640.3 69.3 664.8 68.2C689.3 67 713.7 66 738.2 73.2C762.7 80.3 787.3 95.7 812 96C836.7 96.3 861.3 81.7 886 81.7C910.7 81.7 935.3 96.3 947.7 103.7L960 111L960 201L947.7 201C935.3 201 910.7 201 886 201C861.3 201 836.7 201 812 201C787.3 201 762.7 201 738.2 201C713.7 201 689.3 201 664.8 201C640.3 201 615.7 201 591 201C566.3 201 541.7 201 517 201C492.3 201 467.7 201 443 201C418.3 201 393.7 201 369 201C344.3 201 319.7 201 295.2 201C270.7 201 246.3 201 221.8 201C197.3 201 172.7 201 148 201C123.3 201 98.7 201 74 201C49.3 201 24.7 201 12.3 201L0 201Z" fill="#44cead"></path><path d="M0 126L12.3 120C24.7 114 49.3 102 74 101.3C98.7 100.7 123.3 111.3 148 112.7C172.7 114 197.3 106 221.8 102.7C246.3 99.3 270.7 100.7 295.2 106C319.7 111.3 344.3 120.7 369 124C393.7 127.3 418.3 124.7 443 117.8C467.7 111 492.3 100 517 100C541.7 100 566.3 111 591 111.2C615.7 111.3 640.3 100.7 664.8 97.3C689.3 94 713.7 98 738.2 101.3C762.7 104.7 787.3 107.3 812 108.8C836.7 110.3 861.3 110.7 886 107.5C910.7 104.3 935.3 97.7 947.7 94.3L960 91L960 201L947.7 201C935.3 201 910.7 201 886 201C861.3 201 836.7 201 812 201C787.3 201 762.7 201 738.2 201C713.7 201 689.3 201 664.8 201C640.3 201 615.7 201 591 201C566.3 201 541.7 201 517 201C492.3 201 467.7 201 443 201C418.3 201 393.7 201 369 201C344.3 201 319.7 201 295.2 201C270.7 201 246.3 201 221.8 201C197.3 201 172.7 201 148 201C123.3 201 98.7 201 74 201C49.3 201 24.7 201 12.3 201L0 201Z" fill="#00a9b2"></path><path d="M0 143L12.3 140.3C24.7 137.7 49.3 132.3 74 130.2C98.7 128 123.3 129 148 129C172.7 129 197.3 128 221.8 123.8C246.3 119.7 270.7 112.3 295.2 111.2C319.7 110 344.3 115 369 118.5C393.7 122 418.3 124 443 122.5C467.7 121 492.3 116 517 113.5C541.7 111 566.3 111 591 112.7C615.7 114.3 640.3 117.7 664.8 122.3C689.3 127 713.7 133 738.2 133.3C762.7 133.7 787.3 128.3 812 124.2C836.7 120 861.3 117 886 115C910.7 113 935.3 112 947.7 111.5L960 111L960 201L947.7 201C935.3 201 910.7 201 886 201C861.3 201 836.7 201 812 201C787.3 201 762.7 201 738.2 201C713.7 201 689.3 201 664.8 201C640.3 201 615.7 201 591 201C566.3 201 541.7 201 517 201C492.3 201 467.7 201 443 201C418.3 201 393.7 201 369 201C344.3 201 319.7 201 295.2 201C270.7 201 246.3 201 221.8 201C197.3 201 172.7 201 148 201C123.3 201 98.7 201 74 201C49.3 201 24.7 201 12.3 201L0 201Z" fill="#0082a5"></path><path d="M0 148L12.3 148.7C24.7 149.3 49.3 150.7 74 148.7C98.7 146.7 123.3 141.3 148 137.7C172.7 134 197.3 132 221.8 135C246.3 138 270.7 146 295.2 150.2C319.7 154.3 344.3 154.7 369 153.7C393.7 152.7 418.3 150.3 443 148C467.7 145.7 492.3 143.3 517 142.5C541.7 141.7 566.3 142.3 591 144.3C615.7 146.3 640.3 149.7 664.8 148.2C689.3 146.7 713.7 140.3 738.2 141C762.7 141.7 787.3 149.3 812 153.3C836.7 157.3 861.3 157.7 886 156.2C910.7 154.7 935.3 151.3 947.7 149.7L960 148L960 201L947.7 201C935.3 201 910.7 201 886 201C861.3 201 836.7 201 812 201C787.3 201 762.7 201 738.2 201C713.7 201 689.3 201 664.8 201C640.3 201 615.7 201 591 201C566.3 201 541.7 201 517 201C492.3 201 467.7 201 443 201C418.3 201 393.7 201 369 201C344.3 201 319.7 201 295.2 201C270.7 201 246.3 201 221.8 201C197.3 201 172.7 201 148 201C123.3 201 98.7 201 74 201C49.3 201 24.7 201 12.3 201L0 201Z" fill="#145b86"></path><path d="M0 147L12.3 147.2C24.7 147.3 49.3 147.7 74 149.8C98.7 152 123.3 156 148 160C172.7 164 197.3 168 221.8 168.8C246.3 169.7 270.7 167.3 295.2 163.3C319.7 159.3 344.3 153.7 369 154.5C393.7 155.3 418.3 162.7 443 164.3C467.7 166 492.3 162 517 158.3C541.7 154.7 566.3 151.3 591 149.2C615.7 147 640.3 146 664.8 147.3C689.3 148.7 713.7 152.3 738.2 154C762.7 155.7 787.3 155.3 812 156.2C836.7 157 861.3 159 886 160.8C910.7 162.7 935.3 164.3 947.7 165.2L960 166L960 201L947.7 201C935.3 201 910.7 201 886 201C861.3 201 836.7 201 812 201C787.3 201 762.7 201 738.2 201C713.7 201 689.3 201 664.8 201C640.3 201 615.7 201 591 201C566.3 201 541.7 201 517 201C492.3 201 467.7 201 443 201C418.3 201 393.7 201 369 201C344.3 201 319.7 201 295.2 201C270.7 201 246.3 201 221.8 201C197.3 201 172.7 201 148 201C123.3 201 98.7 201 74 201C49.3 201 24.7 201 12.3 201L0 201Z" fill="#233661"></path><path d="M0 175L12.3 175.7C24.7 176.3 49.3 177.7 74 176.7C98.7 175.7 123.3 172.3 148 170.5C172.7 168.7 197.3 168.3 221.8 169.7C246.3 171 270.7 174 295.2 175.5C319.7 177 344.3 177 369 176.3C393.7 175.7 418.3 174.3 443 172.8C467.7 171.3 492.3 169.7 517 170.2C541.7 170.7 566.3 173.3 591 172.8C615.7 172.3 640.3 168.7 664.8 170.5C689.3 172.3 713.7 179.7 738.2 181.7C762.7 183.7 787.3 180.3 812 179C836.7 177.7 861.3 178.3 886 179.7C910.7 181 935.3 183 947.7 184L960 185L960 201L947.7 201C935.3 201 910.7 201 886 201C861.3 201 836.7 201 812 201C787.3 201 762.7 201 738.2 201C713.7 201 689.3 201 664.8 201C640.3 201 615.7 201 591 201C566.3 201 541.7 201 517 201C492.3 201 467.7 201 443 201C418.3 201 393.7 201 369 201C344.3 201 319.7 201 295.2 201C270.7 201 246.3 201 221.8 201C197.3 201 172.7 201 148 201C123.3 201 98.7 201 74 201C49.3 201 24.7 201 12.3 201L0 201Z" fill="#211337"></path></svg>