<svg id="visual" viewBox="0 0 960 100" width="960" height="100" xmlns="http://www.w3.org/2000/svg" xmlns:xlink="http://www.w3.org/1999/xlink" version="1.1"><path d="M0 16L7.3 15.5C14.7 15 29.3 14 43.8 15C58.3 16 72.7 19 87.2 17.7C101.7 16.3 116.3 10.7 131 13.5C145.7 16.3 160.3 27.7 174.8 30C189.3 32.3 203.7 25.7 218.2 22.7C232.7 19.7 247.3 20.3 261.8 18.5C276.3 16.7 290.7 12.3 305.2 14.7C319.7 17 334.3 26 349 25.3C363.7 24.7 378.3 14.3 392.8 13C407.3 11.7 421.7 19.3 436.2 21.7C450.7 24 465.3 21 480 22.3C494.7 23.7 509.3 29.3 523.8 29.3C538.3 29.3 552.7 23.7 567.2 21.2C581.7 18.7 596.3 19.3 611 17.2C625.7 15 640.3 10 654.8 11.5C669.3 13 683.7 21 698.2 25.8C712.7 30.7 727.3 32.3 741.8 32.8C756.3 33.3 770.7 32.7 785.2 31.5C799.7 30.3 814.3 28.7 829 28.5C843.7 28.3 858.3 29.7 872.8 25.8C887.3 22 901.7 13 916.2 13C930.7 13 945.3 22 952.7 26.5L960 31L960 101L952.7 101C945.3 101 930.7 101 916.2 101C901.7 101 887.3 101 872.8 101C858.3 101 843.7 101 829 101C814.3 101 799.7 101 785.2 101C770.7 101 756.3 101 741.8 101C727.3 101 712.7 101 698.2 101C683.7 101 669.3 101 654.8 101C640.3 101 625.7 101 611 101C596.3 101 581.7 101 567.2 101C552.7 101 538.3 101 523.8 101C509.3 101 494.7 101 480 101C465.3 101 450.7 101 436.2 101C421.7 101 407.3 101 392.8 101C378.3 101 363.7 101 349 101C334.3 101 319.7 101 305.2 101C290.7 101 276.3 101 261.8 101C247.3 101 232.7 101 218.2 101C203.7 101 189.3 101 174.8 101C160.3 101 145.7 101 131 101C116.3 101 101.7 101 87.2 101C72.7 101 58.3 101 43.8 101C29.3 101 14.7 101 7.3 101L0 101Z" fill="#86dec9"></path><path d="M0 26L7.3 24.8C14.7 23.7 29.3 21.3 43.8 19.8C58.3 18.3 72.7 17.7 87.2 22.2C101.7 26.7 116.3 36.3 131 41.5C145.7 46.7 160.3 47.3 174.8 46.2C189.3 45 203.7 42 218.2 41.7C232.7 41.3 247.3 43.7 261.8 41.2C276.3 38.7 290.7 31.3 305.2 30.8C319.7 30.3 334.3 36.7 349 36.5C363.7 36.3 378.3 29.7 392.8 27.2C407.3 24.7 421.7 26.3 436.2 26.2C450.7 26 465.3 24 480 23.3C494.7 22.7 509.3 23.3 523.8 26.3C538.3 29.3 552.7 34.7 567.2 38.3C581.7 42 596.3 44 611 42.5C625.7 41 640.3 36 654.8 32.2C669.3 28.3 683.7 25.7 698.2 25.8C712.7 26 727.3 29 741.8 32.7C756.3 36.3 770.7 40.7 785.2 43.3C799.7 46 814.3 47 829 43.5C843.7 40 858.3 32 872.8 29.8C887.3 27.7 901.7 31.3 916.2 31.7C930.7 32 945.3 29 952.7 27.5L960 26L960 101L952.7 101C945.3 101 930.7 101 916.2 101C901.7 101 887.3 101 872.8 101C858.3 101 843.7 101 829 101C814.3 101 799.7 101 785.2 101C770.7 101 756.3 101 741.8 101C727.3 101 712.7 101 698.2 101C683.7 101 669.3 101 654.8 101C640.3 101 625.7 101 611 101C596.3 101 581.7 101 567.2 101C552.7 101 538.3 101 523.8 101C509.3 101 494.7 101 480 101C465.3 101 450.7 101 436.2 101C421.7 101 407.3 101 392.8 101C378.3 101 363.7 101 349 101C334.3 101 319.7 101 305.2 101C290.7 101 276.3 101 261.8 101C247.3 101 232.7 101 218.2 101C203.7 101 189.3 101 174.8 101C160.3 101 145.7 101 131 101C116.3 101 101.7 101 87.2 101C72.7 101 58.3 101 43.8 101C29.3 101 14.7 101 7.3 101L0 101Z" fill="#72d9c0"></path><path d="M0 36L7.3 39.7C14.7 43.3 29.3 50.7 43.8 51.5C58.3 52.3 72.7 46.7 87.2 46C101.7 45.3 116.3 49.7 131 50.5C145.7 51.3 160.3 48.7 174.8 46.2C189.3 43.7 203.7 41.3 218.2 40.3C232.7 39.3 247.3 39.7 261.8 40C276.3 40.3 290.7 40.7 305.2 40C319.7 39.3 334.3 37.7 349 39C363.7 40.3 378.3 44.7 392.8 48.2C407.3 51.7 421.7 54.3 436.2 51.5C450.7 48.7 465.3 40.3 480 37.8C494.7 35.3 509.3 38.7 523.8 39.8C538.3 41 552.7 40 567.2 42.7C581.7 45.3 596.3 51.7 611 55.2C625.7 58.7 640.3 59.3 654.8 55.8C669.3 52.3 683.7 44.7 698.2 40.7C712.7 36.7 727.3 36.3 741.8 37.5C756.3 38.7 770.7 41.3 785.2 40.5C799.7 39.7 814.3 35.3 829 33.7C843.7 32 858.3 33 872.8 36.3C887.3 39.7 901.7 45.3 916.2 48.3C930.7 51.3 945.3 51.7 952.7 51.8L960 52L960 101L952.7 101C945.3 101 930.7 101 916.2 101C901.7 101 887.3 101 872.8 101C858.3 101 843.7 101 829 101C814.3 101 799.7 101 785.2 101C770.7 101 756.3 101 741.8 101C727.3 101 712.7 101 698.2 101C683.7 101 669.3 101 654.8 101C640.3 101 625.7 101 611 101C596.3 101 581.7 101 567.2 101C552.7 101 538.3 101 523.8 101C509.3 101 494.7 101 480 101C465.3 101 450.7 101 436.2 101C421.7 101 407.3 101 392.8 101C378.3 101 363.7 101 349 101C334.3 101 319.7 101 305.2 101C290.7 101 276.3 101 261.8 101C247.3 101 232.7 101 218.2 101C203.7 101 189.3 101 174.8 101C160.3 101 145.7 101 131 101C116.3 101 101.7 101 87.2 101C72.7 101 58.3 101 43.8 101C29.3 101 14.7 101 7.3 101L0 101Z" fill="#5dd3b7"></path><path d="M0 55L7.3 52.7C14.7 50.3 29.3 45.7 43.8 46.7C58.3 47.7 72.7 54.3 87.2 58.5C101.7 62.7 116.3 64.3 131 63C145.7 61.7 160.3 57.3 174.8 57C189.3 56.7 203.7 60.3 218.2 62.8C232.7 65.3 247.3 66.7 261.8 66.2C276.3 65.7 290.7 63.3 305.2 63.5C319.7 63.7 334.3 66.3 349 66C363.7 65.7 378.3 62.3 392.8 58.5C407.3 54.7 421.7 50.3 436.2 48.5C450.7 46.7 465.3 47.3 480 48.8C494.7 50.3 509.3 52.7 523.8 53.2C538.3 53.7 552.7 52.3 567.2 52.3C581.7 52.3 596.3 53.7 611 55.2C625.7 56.7 640.3 58.3 654.8 56.2C669.3 54 683.7 48 698.2 47.7C712.7 47.3 727.3 52.7 741.8 55.2C756.3 57.7 770.7 57.3 785.2 58C799.7 58.7 814.3 60.3 829 59C843.7 57.7 858.3 53.3 872.8 54.3C887.3 55.3 901.7 61.7 916.2 61C930.7 60.3 945.3 52.7 952.7 48.8L960 45L960 101L952.7 101C945.3 101 930.7 101 916.2 101C901.7 101 887.3 101 872.8 101C858.3 101 843.7 101 829 101C814.3 101 799.7 101 785.2 101C770.7 101 756.3 101 741.8 101C727.3 101 712.7 101 698.2 101C683.7 101 669.3 101 654.8 101C640.3 101 625.7 101 611 101C596.3 101 581.7 101 567.2 101C552.7 101 538.3 101 523.8 101C509.3 101 494.7 101 480 101C465.3 101 450.7 101 436.2 101C421.7 101 407.3 101 392.8 101C378.3 101 363.7 101 349 101C334.3 101 319.7 101 305.2 101C290.7 101 276.3 101 261.8 101C247.3 101 232.7 101 218.2 101C203.7 101 189.3 101 174.8 101C160.3 101 145.7 101 131 101C116.3 101 101.7 101 87.2 101C72.7 101 58.3 101 43.8 101C29.3 101 14.7 101 7.3 101L0 101Z" fill="#44cead"></path><path d="M0 55L7.3 58C14.7 61 29.3 67 43.8 68C58.3 69 72.7 65 87.2 64C101.7 63 116.3 65 131 63.7C145.7 62.3 160.3 57.7 174.8 56.5C189.3 55.3 203.7 57.7 218.2 59.3C232.7 61 247.3 62 261.8 64.7C276.3 67.3 290.7 71.7 305.2 73.7C319.7 75.7 334.3 75.3 349 75.2C363.7 75 378.3 75 392.8 71.5C407.3 68 421.7 61 436.2 60.5C450.7 60 465.3 66 480 66.8C494.7 67.7 509.3 63.3 523.8 64C538.3 64.7 552.7 70.3 567.2 71.8C581.7 73.3 596.3 70.7 611 69.5C625.7 68.3 640.3 68.7 654.8 70.2C669.3 71.7 683.7 74.3 698.2 72.2C712.7 70 727.3 63 741.8 61C756.3 59 770.7 62 785.2 62C799.7 62 814.3 59 829 58C843.7 57 858.3 58 872.8 61.2C887.3 64.3 901.7 69.7 916.2 69C930.7 68.3 945.3 61.7 952.7 58.3L960 55L960 101L952.7 101C945.3 101 930.7 101 916.2 101C901.7 101 887.3 101 872.8 101C858.3 101 843.7 101 829 101C814.3 101 799.7 101 785.2 101C770.7 101 756.3 101 741.8 101C727.3 101 712.7 101 698.2 101C683.7 101 669.3 101 654.8 101C640.3 101 625.7 101 611 101C596.3 101 581.7 101 567.2 101C552.7 101 538.3 101 523.8 101C509.3 101 494.7 101 480 101C465.3 101 450.7 101 436.2 101C421.7 101 407.3 101 392.8 101C378.3 101 363.7 101 349 101C334.3 101 319.7 101 305.2 101C290.7 101 276.3 101 261.8 101C247.3 101 232.7 101 218.2 101C203.7 101 189.3 101 174.8 101C160.3 101 145.7 101 131 101C116.3 101 101.7 101 87.2 101C72.7 101 58.3 101 43.8 101C29.3 101 14.7 101 7.3 101L0 101Z" fill="#3dbc9e"></path><path d="M0 85L7.3 83.2C14.7 81.3 29.3 77.7 43.8 76.2C58.3 74.7 72.7 75.3 87.2 74.7C101.7 74 116.3 72 131 71C145.7 70 160.3 70 174.8 71.3C189.3 72.7 203.7 75.3 218.2 77.3C232.7 79.3 247.3 80.7 261.8 80.3C276.3 80 290.7 78 305.2 76.5C319.7 75 334.3 74 349 73.3C363.7 72.7 378.3 72.3 392.8 73.8C407.3 75.3 421.7 78.7 436.2 80.5C450.7 82.3 465.3 82.7 480 81.2C494.7 79.7 509.3 76.3 523.8 75C538.3 73.7 552.7 74.3 567.2 75C581.7 75.7 596.3 76.3 611 76.7C625.7 77 640.3 77 654.8 77.3C669.3 77.7 683.7 78.3 698.2 79.2C712.7 80 727.3 81 741.8 81.5C756.3 82 770.7 82 785.2 80.8C799.7 79.7 814.3 77.3 829 75.7C843.7 74 858.3 73 872.8 71.8C887.3 70.7 901.7 69.3 916.2 69.5C930.7 69.7 945.3 71.3 952.7 72.2L960 73L960 101L952.7 101C945.3 101 930.7 101 916.2 101C901.7 101 887.3 101 872.8 101C858.3 101 843.7 101 829 101C814.3 101 799.7 101 785.2 101C770.7 101 756.3 101 741.8 101C727.3 101 712.7 101 698.2 101C683.7 101 669.3 101 654.8 101C640.3 101 625.7 101 611 101C596.3 101 581.7 101 567.2 101C552.7 101 538.3 101 523.8 101C509.3 101 494.7 101 480 101C465.3 101 450.7 101 436.2 101C421.7 101 407.3 101 392.8 101C378.3 101 363.7 101 349 101C334.3 101 319.7 101 305.2 101C290.7 101 276.3 101 261.8 101C247.3 101 232.7 101 218.2 101C203.7 101 189.3 101 174.8 101C160.3 101 145.7 101 131 101C116.3 101 101.7 101 87.2 101C72.7 101 58.3 101 43.8 101C29.3 101 14.7 101 7.3 101L0 101Z" fill="#36aa8f"></path><path d="M0 94L7.3 91.8C14.7 89.7 29.3 85.3 43.8 85.5C58.3 85.7 72.7 90.3 87.2 89.8C101.7 89.3 116.3 83.7 131 82.7C145.7 81.7 160.3 85.3 174.8 86.8C189.3 88.3 203.7 87.7 218.2 88.3C232.7 89 247.3 91 261.8 92.3C276.3 93.7 290.7 94.3 305.2 93.8C319.7 93.3 334.3 91.7 349 90.3C363.7 89 378.3 88 392.8 86.8C407.3 85.7 421.7 84.3 436.2 84.8C450.7 85.3 465.3 87.7 480 87.7C494.7 87.7 509.3 85.3 523.8 84.2C538.3 83 552.7 83 567.2 82.5C581.7 82 596.3 81 611 80.2C625.7 79.3 640.3 78.7 654.8 79.8C669.3 81 683.7 84 698.2 86.3C712.7 88.7 727.3 90.3 741.8 91.5C756.3 92.7 770.7 93.3 785.2 92.5C799.7 91.7 814.3 89.3 829 88.8C843.7 88.3 858.3 89.7 872.8 88.7C887.3 87.7 901.7 84.3 916.2 83.2C930.7 82 945.3 83 952.7 83.5L960 84L960 101L952.7 101C945.3 101 930.7 101 916.2 101C901.7 101 887.3 101 872.8 101C858.3 101 843.7 101 829 101C814.3 101 799.7 101 785.2 101C770.7 101 756.3 101 741.8 101C727.3 101 712.7 101 698.2 101C683.7 101 669.3 101 654.8 101C640.3 101 625.7 101 611 101C596.3 101 581.7 101 567.2 101C552.7 101 538.3 101 523.8 101C509.3 101 494.7 101 480 101C465.3 101 450.7 101 436.2 101C421.7 101 407.3 101 392.8 101C378.3 101 363.7 101 349 101C334.3 101 319.7 101 305.2 101C290.7 101 276.3 101 261.8 101C247.3 101 232.7 101 218.2 101C203.7 101 189.3 101 174.8 101C160.3 101 145.7 101 131 101C116.3 101 101.7 101 87.2 101C72.7 101 58.3 101 43.8 101C29.3 101 14.7 101 7.3 101L0 101Z" fill="#309880"></path></svg>