<svg id="visual" viewBox="0 0 960 70" width="960" height="70" xmlns="http://www.w3.org/2000/svg" xmlns:xlink="http://www.w3.org/1999/xlink" version="1.1"><path d="M0 17L11.5 17.8C23 18.7 46 20.3 68.8 20.7C91.7 21 114.3 20 137.2 19.3C160 18.7 183 18.3 205.8 16.5C228.7 14.7 251.3 11.3 274.2 10.5C297 9.7 320 11.3 342.8 11.8C365.7 12.3 388.3 11.7 411.2 12.5C434 13.3 457 15.7 480 15.5C503 15.3 526 12.7 548.8 14.2C571.7 15.7 594.3 21.3 617.2 24C640 26.7 663 26.3 685.8 26.2C708.7 26 731.3 26 754.2 24.3C777 22.7 800 19.3 822.8 16.2C845.7 13 868.3 10 891.2 11.5C914 13 937 19 948.5 22L960 25L960 71L948.5 71C937 71 914 71 891.2 71C868.3 71 845.7 71 822.8 71C800 71 777 71 754.2 71C731.3 71 708.7 71 685.8 71C663 71 640 71 617.2 71C594.3 71 571.7 71 548.8 71C526 71 503 71 480 71C457 71 434 71 411.2 71C388.3 71 365.7 71 342.8 71C320 71 297 71 274.2 71C251.3 71 228.7 71 205.8 71C183 71 160 71 137.2 71C114.3 71 91.7 71 68.8 71C46 71 23 71 11.5 71L0 71Z" fill="#ffd698"></path><path d="M0 32L11.5 29.8C23 27.7 46 23.3 68.8 23.2C91.7 23 114.3 27 137.2 28.7C160 30.3 183 29.7 205.8 29.5C228.7 29.3 251.3 29.7 274.2 30.3C297 31 320 32 342.8 29.8C365.7 27.7 388.3 22.3 411.2 22.7C434 23 457 29 480 30.7C503 32.3 526 29.7 548.8 28.2C571.7 26.7 594.3 26.3 617.2 24.7C640 23 663 20 685.8 18.8C708.7 17.7 731.3 18.3 754.2 21.2C777 24 800 29 822.8 31C845.7 33 868.3 32 891.2 30.5C914 29 937 27 948.5 26L960 25L960 71L948.5 71C937 71 914 71 891.2 71C868.3 71 845.7 71 822.8 71C800 71 777 71 754.2 71C731.3 71 708.7 71 685.8 71C663 71 640 71 617.2 71C594.3 71 571.7 71 548.8 71C526 71 503 71 480 71C457 71 434 71 411.2 71C388.3 71 365.7 71 342.8 71C320 71 297 71 274.2 71C251.3 71 228.7 71 205.8 71C183 71 160 71 137.2 71C114.3 71 91.7 71 68.8 71C46 71 23 71 11.5 71L0 71Z" fill="#e3d68d"></path><path d="M0 25L11.5 25.8C23 26.7 46 28.3 68.8 29.8C91.7 31.3 114.3 32.7 137.2 32.3C160 32 183 30 205.8 30.7C228.7 31.3 251.3 34.7 274.2 36.3C297 38 320 38 342.8 36.8C365.7 35.7 388.3 33.3 411.2 31.5C434 29.7 457 28.3 480 28.3C503 28.3 526 29.7 548.8 30.5C571.7 31.3 594.3 31.7 617.2 33.5C640 35.3 663 38.7 685.8 38.3C708.7 38 731.3 34 754.2 33.5C777 33 800 36 822.8 36.3C845.7 36.7 868.3 34.3 891.2 33.7C914 33 937 34 948.5 34.5L960 35L960 71L948.5 71C937 71 914 71 891.2 71C868.3 71 845.7 71 822.8 71C800 71 777 71 754.2 71C731.3 71 708.7 71 685.8 71C663 71 640 71 617.2 71C594.3 71 571.7 71 548.8 71C526 71 503 71 480 71C457 71 434 71 411.2 71C388.3 71 365.7 71 342.8 71C320 71 297 71 274.2 71C251.3 71 228.7 71 205.8 71C183 71 160 71 137.2 71C114.3 71 91.7 71 68.8 71C46 71 23 71 11.5 71L0 71Z" fill="#c4d68a"></path><path d="M0 38L11.5 37.5C23 37 46 36 68.8 36.5C91.7 37 114.3 39 137.2 40.8C160 42.7 183 44.3 205.8 44.8C228.7 45.3 251.3 44.7 274.2 45.2C297 45.7 320 47.3 342.8 48.2C365.7 49 388.3 49 411.2 49.2C434 49.3 457 49.7 480 47.8C503 46 526 42 548.8 40.2C571.7 38.3 594.3 38.7 617.2 40.3C640 42 663 45 685.8 46C708.7 47 731.3 46 754.2 45C777 44 800 43 822.8 43.2C845.7 43.3 868.3 44.7 891.2 43.7C914 42.7 937 39.3 948.5 37.7L960 36L960 71L948.5 71C937 71 914 71 891.2 71C868.3 71 845.7 71 822.8 71C800 71 777 71 754.2 71C731.3 71 708.7 71 685.8 71C663 71 640 71 617.2 71C594.3 71 571.7 71 548.8 71C526 71 503 71 480 71C457 71 434 71 411.2 71C388.3 71 365.7 71 342.8 71C320 71 297 71 274.2 71C251.3 71 228.7 71 205.8 71C183 71 160 71 137.2 71C114.3 71 91.7 71 68.8 71C46 71 23 71 11.5 71L0 71Z" fill="#a1d48f"></path><path d="M0 50L11.5 49.8C23 49.7 46 49.3 68.8 48.5C91.7 47.7 114.3 46.3 137.2 46.7C160 47 183 49 205.8 49.3C228.7 49.7 251.3 48.3 274.2 48.3C297 48.3 320 49.7 342.8 49.5C365.7 49.3 388.3 47.7 411.2 47.8C434 48 457 50 480 50.2C503 50.3 526 48.7 548.8 47.7C571.7 46.7 594.3 46.3 617.2 46C640 45.7 663 45.3 685.8 45.2C708.7 45 731.3 45 754.2 46.2C777 47.3 800 49.7 822.8 51C845.7 52.3 868.3 52.7 891.2 51.3C914 50 937 47 948.5 45.5L960 44L960 71L948.5 71C937 71 914 71 891.2 71C868.3 71 845.7 71 822.8 71C800 71 777 71 754.2 71C731.3 71 708.7 71 685.8 71C663 71 640 71 617.2 71C594.3 71 571.7 71 548.8 71C526 71 503 71 480 71C457 71 434 71 411.2 71C388.3 71 365.7 71 342.8 71C320 71 297 71 274.2 71C251.3 71 228.7 71 205.8 71C183 71 160 71 137.2 71C114.3 71 91.7 71 68.8 71C46 71 23 71 11.5 71L0 71Z" fill="#79d29b"></path><path d="M0 62L11.5 61C23 60 46 58 68.8 57.3C91.7 56.7 114.3 57.3 137.2 58C160 58.7 183 59.3 205.8 58.8C228.7 58.3 251.3 56.7 274.2 56.3C297 56 320 57 342.8 58.5C365.7 60 388.3 62 411.2 61.2C434 60.3 457 56.7 480 56C503 55.3 526 57.7 548.8 59.7C571.7 61.7 594.3 63.3 617.2 64C640 64.7 663 64.3 685.8 64C708.7 63.7 731.3 63.3 754.2 63.2C777 63 800 63 822.8 62.8C845.7 62.7 868.3 62.3 891.2 61.2C914 60 937 58 948.5 57L960 56L960 71L948.5 71C937 71 914 71 891.2 71C868.3 71 845.7 71 822.8 71C800 71 777 71 754.2 71C731.3 71 708.7 71 685.8 71C663 71 640 71 617.2 71C594.3 71 571.7 71 548.8 71C526 71 503 71 480 71C457 71 434 71 411.2 71C388.3 71 365.7 71 342.8 71C320 71 297 71 274.2 71C251.3 71 228.7 71 205.8 71C183 71 160 71 137.2 71C114.3 71 91.7 71 68.8 71C46 71 23 71 11.5 71L0 71Z" fill="#44cead"></path></svg>